# xmcd CD Database Entry
#
# Track frame offsets:
# 150
# 21692
# 40662
# 64386
# 89581
# 104290
# 115512
# 141069
# 159799
# 188788
# 213910
# 240465
#
# Disc length: 3444 seconds
#
# Revision: 1
# Processed by: cddbd v1.4b41PL3 Copyright (c) Steve Scherf et al.
# Submitted via: tcd 2.0b
#
DISCID=9d0d720c
DTITLE=Eric Clapton - Journey Man
DYEAR=1900
DGENRE=
TTITLE0=Pretending
TTITLE1=Anything For Your Love
TTITLE2=Bad Love
TTITLE3=Running On Faith
TTITLE4=Hard Times
TTITLE5=Hound Dog
TTITLE6=No Alibis
TTITLE7=Run So Far
TTITLE8=Old Love
TTITLE9=Breaking Point
TTITLE10=Lead Me On
TTITLE11=Before You Accuse Me
EXTD=
EXTT0=
EXTT1=
EXTT2=
EXTT3=
EXTT4=
EXTT5=
EXTT6=
EXTT7=
EXTT8=
EXTT9=
EXTT10=
EXTT11=
PLAYORDER=
